<?xml version="1.0" encoding="UTF-8" standalone="no"?>
<!-- Created with Inkscape (http://www.inkscape.org/) -->

<svg
   xmlns:dc="http://purl.org/dc/elements/1.1/"
   xmlns:cc="http://creativecommons.org/ns#"
   xmlns:rdf="http://www.w3.org/1999/02/22-rdf-syntax-ns#"
   xmlns:svg="http://www.w3.org/2000/svg"
   xmlns="http://www.w3.org/2000/svg"
   xmlns:sodipodi="http://sodipodi.sourceforge.net/DTD/sodipodi-0.dtd"
   xmlns:inkscape="http://www.inkscape.org/namespaces/inkscape"
   width="800px"
   height="600px"
   id="svg8747"
   version="1.1"
   inkscape:version="0.48.0 r9654"
   sodipodi:docname="remove_comments.svg">
  <defs
     id="defs8749">
    <marker
       inkscape:stockid="Arrow1Mstart"
       orient="auto"
       refY="0.0"
       refX="0.0"
       id="Arrow1Mstart"
       style="overflow:visible">
      <path
         id="path9355"
         d="M 0.0,0.0 L 5.0,-5.0 L -12.5,0.0 L 5.0,5.0 L 0.0,0.0 z "
         style="fill-rule:evenodd;stroke:#000000;stroke-width:1.0pt;marker-start:none"
         transform="scale(0.4) translate(10,0)" />
    </marker>
    <marker
       inkscape:stockid="Arrow2Lstart"
       orient="auto"
       refY="0.0"
       refX="0.0"
       id="Arrow2Lstart"
       style="overflow:visible">
      <path
         id="path9367"
         style="font-size:12.0;fill-rule:evenodd;stroke-width:0.62500000;stroke-linejoin:round"
         d="M 8.7185878,4.0337352 L -2.2072895,0.016013256 L 8.7185884,-4.0017078 C 6.9730900,-1.6296469 6.9831476,1.6157441 8.7185878,4.0337352 z "
         transform="scale(1.1) translate(1,0)" />
    </marker>
    <marker
       inkscape:stockid="Arrow1Lstart"
       orient="auto"
       refY="0.0"
       refX="0.0"
       id="Arrow1Lstart"
       style="overflow:visible">
      <path
         id="path9349"
         d="M 0.0,0.0 L 5.0,-5.0 L -12.5,0.0 L 5.0,5.0 L 0.0,0.0 z "
         style="fill-rule:evenodd;stroke:#000000;stroke-width:1.0pt;marker-start:none"
         transform="scale(0.8) translate(12.5,0)" />
    </marker>
    <marker
       inkscape:stockid="Arrow1Mend"
       orient="auto"
       refY="0.0"
       refX="0.0"
       id="Arrow1Mend"
       style="overflow:visible;">
      <path
         id="path9358"
         d="M 0.0,0.0 L 5.0,-5.0 L -12.5,0.0 L 5.0,5.0 L 0.0,0.0 z "
         style="fill-rule:evenodd;stroke:#000000;stroke-width:1.0pt;marker-start:none;"
         transform="scale(0.4) rotate(180) translate(10,0)" />
    </marker>
    <marker
       inkscape:stockid="Arrow2Lend"
       orient="auto"
       refY="0.0"
       refX="0.0"
       id="Arrow2Lend"
       style="overflow:visible;">
      <path
         id="path9370"
         style="font-size:12.0;fill-rule:evenodd;stroke-width:0.62500000;stroke-linejoin:round;"
         d="M 8.7185878,4.0337352 L -2.2072895,0.016013256 L 8.7185884,-4.0017078 C 6.9730900,-1.6296469 6.9831476,1.6157441 8.7185878,4.0337352 z "
         transform="scale(1.1) rotate(180) translate(1,0)" />
    </marker>
    <marker
       inkscape:stockid="Arrow1Lend"
       orient="auto"
       refY="0.0"
       refX="0.0"
       id="Arrow1Lend"
       style="overflow:visible;">
      <path
         id="path9352"
         d="M 0.0,0.0 L 5.0,-5.0 L -12.5,0.0 L 5.0,5.0 L 0.0,0.0 z "
         style="fill-rule:evenodd;stroke:#000000;stroke-width:1.0pt;marker-start:none;"
         transform="scale(0.8) rotate(180) translate(12.5,0)" />
    </marker>
  </defs>
  <sodipodi:namedview
     id="base"
     pagecolor="#ffffff"
     bordercolor="#666666"
     borderopacity="1.0"
     inkscape:pageopacity="0.0"
     inkscape:pageshadow="2"
     inkscape:zoom="2.0553237"
     inkscape:cx="299.21755"
     inkscape:cy="388.72428"
     inkscape:current-layer="layer1"
     inkscape:document-units="px"
     showgrid="false"
     inkscape:window-width="1920"
     inkscape:window-height="1055"
     inkscape:window-x="0"
     inkscape:window-y="0"
     inkscape:window-maximized="1" />
  <metadata
     id="metadata8752">
    <rdf:RDF>
      <cc:Work
         rdf:about="">
        <dc:format>image/svg+xml</dc:format>
        <dc:type
           rdf:resource="http://purl.org/dc/dcmitype/StillImage" />
        <dc:title></dc:title>
      </cc:Work>
    </rdf:RDF>
  </metadata>
  <g
     id="layer1"
     inkscape:label="Layer 1"
     inkscape:groupmode="layer">
    <g
       id="g8801"
       transform="translate(-3.8923309,74.440829)">
      <path
         transform="matrix(0.48395895,0,0,0.48395895,85.927939,66.753931)"
         d="m 222.93579,157.5688 c 0,15.58051 -12.6305,28.21101 -28.21101,28.21101 -15.58051,0 -28.21101,-12.6305 -28.21101,-28.21101 0,-15.58051 12.6305,-28.21101 28.21101,-28.21101 15.58051,0 28.21101,12.6305 28.21101,28.21101 z"
         sodipodi:ry="28.21101"
         sodipodi:rx="28.21101"
         sodipodi:cy="157.5688"
         sodipodi:cx="194.72478"
         id="path8759"
         style="opacity:0.62195123;fill:#d400aa;fill-opacity:1;stroke-width:1.20899999;stroke-miterlimit:4;stroke-dasharray:none"
         sodipodi:type="arc" />
      <text
         sodipodi:linespacing="125%"
         id="text8761"
         y="149.57179"
         x="174.28246"
         style="font-size:18px;font-style:normal;font-variant:normal;font-weight:normal;font-stretch:normal;text-align:start;line-height:125%;letter-spacing:0px;word-spacing:0px;writing-mode:lr-tb;text-anchor:start;fill:#000000;fill-opacity:1;stroke:none;font-family:Sans;-inkscape-font-specification:Sans"
         xml:space="preserve"><tspan
           y="149.57179"
           x="174.28246"
           id="tspan8763"
           sodipodi:role="line">1</tspan></text>
    </g>
    <g
       id="g8806"
       transform="translate(-60.674964,-23.26559)">
      <path
         sodipodi:type="arc"
         style="opacity:0.62195123;fill:#d400aa;fill-opacity:1;stroke-width:1.20899999;stroke-miterlimit:4;stroke-dasharray:none"
         id="path8765"
         sodipodi:cx="194.72478"
         sodipodi:cy="157.5688"
         sodipodi:rx="28.21101"
         sodipodi:ry="28.21101"
         d="m 222.93579,157.5688 c 0,15.58051 -12.6305,28.21101 -28.21101,28.21101 -15.58051,0 -28.21101,-12.6305 -28.21101,-28.21101 0,-15.58051 12.6305,-28.21101 28.21101,-28.21101 15.58051,0 28.21101,12.6305 28.21101,28.21101 z"
         transform="matrix(0.48395895,0,0,0.48395895,231.11143,164.46035)" />
      <text
         xml:space="preserve"
         style="font-size:18px;font-style:normal;font-variant:normal;font-weight:normal;font-stretch:normal;text-align:start;line-height:125%;letter-spacing:0px;word-spacing:0px;writing-mode:lr-tb;text-anchor:start;fill:#000000;fill-opacity:1;stroke:none;font-family:Sans;-inkscape-font-specification:Sans"
         x="319.46594"
         y="247.27821"
         id="text8767"
         sodipodi:linespacing="125%"><tspan
           sodipodi:role="line"
           id="tspan8769"
           x="319.46594"
           y="247.27821">2</tspan></text>
    </g>
    <g
       id="g8811"
       transform="translate(-67.228199,17.33074)">
      <path
         transform="matrix(0.48395895,0,0,0.48395895,326.06556,123.86402)"
         d="m 222.93579,157.5688 c 0,15.58051 -12.6305,28.21101 -28.21101,28.21101 -15.58051,0 -28.21101,-12.6305 -28.21101,-28.21101 0,-15.58051 12.6305,-28.21101 28.21101,-28.21101 15.58051,0 28.21101,12.6305 28.21101,28.21101 z"
         sodipodi:ry="28.21101"
         sodipodi:rx="28.21101"
         sodipodi:cy="157.5688"
         sodipodi:cx="194.72478"
         id="path8771"
         style="opacity:0.62195123;fill:#d400aa;fill-opacity:1;stroke-width:1.20899999;stroke-miterlimit:4;stroke-dasharray:none"
         sodipodi:type="arc" />
      <text
         sodipodi:linespacing="125%"
         id="text8773"
         y="206.68188"
         x="414.42007"
         style="font-size:18px;font-style:normal;font-variant:normal;font-weight:normal;font-stretch:normal;text-align:start;line-height:125%;letter-spacing:0px;word-spacing:0px;writing-mode:lr-tb;text-anchor:start;fill:#000000;fill-opacity:1;stroke:none;font-family:Sans;-inkscape-font-specification:Sans"
         xml:space="preserve"><tspan
           y="206.68188"
           x="414.42007"
           id="tspan8775"
           sodipodi:role="line">3</tspan></text>
    </g>
    <g
       id="g8820"
       transform="translate(-90.98327,-14.32064)">
      <path
         sodipodi:type="arc"
         style="opacity:0.62195123;fill:#d400aa;fill-opacity:1;stroke-width:1.20899999;stroke-miterlimit:4;stroke-dasharray:none"
         id="path8777"
         sodipodi:cx="194.72478"
         sodipodi:cy="157.5688"
         sodipodi:rx="28.21101"
         sodipodi:ry="28.21101"
         d="m 222.93579,157.5688 c 0,15.58051 -12.6305,28.21101 -28.21101,28.21101 -15.58051,0 -28.21101,-12.6305 -28.21101,-28.21101 0,-15.58051 12.6305,-28.21101 28.21101,-28.21101 15.58051,0 28.21101,12.6305 28.21101,28.21101 z"
         transform="matrix(0.48395895,0,0,0.48395895,438.22152,155.5154)" />
      <g
         id="g8816">
        <text
           sodipodi:linespacing="125%"
           id="text8779"
           y="238.33327"
           x="526.57605"
           style="font-size:18px;font-style:normal;font-variant:normal;font-weight:normal;font-stretch:normal;text-align:start;line-height:125%;letter-spacing:0px;word-spacing:0px;writing-mode:lr-tb;text-anchor:start;fill:#000000;fill-opacity:1;stroke:none;font-family:Sans;-inkscape-font-specification:Sans"
           xml:space="preserve"><tspan
             y="238.33327"
             x="526.57605"
             id="tspan8781"
             sodipodi:role="line">4</tspan></text>
      </g>
    </g>
    <g
       id="g8831"
       transform="translate(-134.77196,-223.6791)">
      <path
         transform="matrix(0.48395895,0,0,0.48395895,439.59767,255.97412)"
         d="m 222.93579,157.5688 c 0,15.58051 -12.6305,28.21101 -28.21101,28.21101 -15.58051,0 -28.21101,-12.6305 -28.21101,-28.21101 0,-15.58051 12.6305,-28.21101 28.21101,-28.21101 15.58051,0 28.21101,12.6305 28.21101,28.21101 z"
         sodipodi:ry="28.21101"
         sodipodi:rx="28.21101"
         sodipodi:cy="157.5688"
         sodipodi:cx="194.72478"
         id="path8783"
         style="opacity:0.62195123;fill:#d400aa;fill-opacity:1;stroke-width:1.20899999;stroke-miterlimit:4;stroke-dasharray:none"
         sodipodi:type="arc" />
      <text
         sodipodi:linespacing="125%"
         id="text8785"
         y="338.79199"
         x="527.95221"
         style="font-size:18px;font-style:normal;font-variant:normal;font-weight:normal;font-stretch:normal;text-align:start;line-height:125%;letter-spacing:0px;word-spacing:0px;writing-mode:lr-tb;text-anchor:start;fill:#000000;fill-opacity:1;stroke:none;font-family:Sans;-inkscape-font-specification:Sans"
         xml:space="preserve"><tspan
           y="338.79199"
           x="527.95221"
           id="tspan8787"
           sodipodi:role="line">F</tspan></text>
    </g>
    <g
       id="g8826"
       transform="translate(-199.9685,-265.65158)">
      <path
         sodipodi:type="arc"
         style="opacity:0.62195123;fill:#d400aa;fill-opacity:1;stroke-width:1.20899999;stroke-miterlimit:4;stroke-dasharray:none"
         id="path8789"
         sodipodi:cx="194.72478"
         sodipodi:cy="157.5688"
         sodipodi:rx="28.21101"
         sodipodi:ry="28.21101"
         d="m 222.93579,157.5688 c 0,15.58051 -12.6305,28.21101 -28.21101,28.21101 -15.58051,0 -28.21101,-12.6305 -28.21101,-28.21101 0,-15.58051 12.6305,-28.21101 28.21101,-28.21101 15.58051,0 28.21101,12.6305 28.21101,28.21101 z"
         transform="matrix(0.48395895,0,0,0.48395895,326.06556,297.9466)" />
      <text
         xml:space="preserve"
         style="font-size:18px;font-style:normal;font-variant:normal;font-weight:normal;font-stretch:normal;text-align:start;line-height:125%;letter-spacing:0px;word-spacing:0px;writing-mode:lr-tb;text-anchor:start;fill:#000000;fill-opacity:1;stroke:none;font-family:Sans;-inkscape-font-specification:Sans"
         x="414.4201"
         y="380.76447"
         id="text8791"
         sodipodi:linespacing="125%"><tspan
           sodipodi:role="line"
           id="tspan8793"
           x="414.4201"
           y="380.76447">S</tspan></text>
    </g>
    <path
       sodipodi:type="arc"
       style="opacity:0.62195123;fill:#d400aa;fill-opacity:1;stroke-width:1.20899999;stroke-miterlimit:4;stroke-dasharray:none"
       id="path8795"
       sodipodi:cx="194.72478"
       sodipodi:cy="157.5688"
       sodipodi:rx="28.21101"
       sodipodi:ry="28.21101"
       d="m 222.93579,157.5688 a 28.21101,28.21101 0 1 1 -56.42202,0 28.21101,28.21101 0 1 1 56.42202,0 z"
       transform="matrix(0.48395895,0,0,0.48395895,645.33162,-30.264409)" />
    <text
       xml:space="preserve"
       style="font-size:18px;font-style:normal;font-variant:normal;font-weight:normal;font-stretch:normal;text-align:start;line-height:125%;letter-spacing:0px;word-spacing:0px;writing-mode:lr-tb;text-anchor:start;fill:#000000;fill-opacity:1;stroke:none;font-family:Sans;-inkscape-font-specification:Sans"
       x="733.68616"
       y="52.553455"
       id="text8797"
       sodipodi:linespacing="125%"><tspan
         sodipodi:role="line"
         id="tspan8799"
         x="733.68616"
         y="52.553455">1</tspan></text>
    <path
       style="fill:none;stroke:#000000;stroke-width:1px;stroke-linecap:butt;stroke-linejoin:miter;stroke-opacity:1;marker-mid:none;marker-end:url(#Arrow1Mend)"
       d="m 176.12797,200.54954 c 0.48654,-69.57542 28.2194,-83.68512 28.2194,-83.68512"
       id="path8836"
       inkscape:connector-curvature="0" />
    <path
       inkscape:connector-curvature="0"
       id="path10714"
       d="m 353.71557,200.54954 c 0.48654,-69.57542 28.2194,-83.68512 28.2194,-83.68512"
       style="fill:none;stroke:#000000;stroke-width:1px;stroke-linecap:butt;stroke-linejoin:miter;stroke-opacity:1;marker-mid:none;marker-end:url(#Arrow1Mend)" />
    <path
       inkscape:connector-curvature="0"
       id="path10716"
       d="m 265.31978,200.54954 c -0.48654,-69.57542 -28.2194,-83.68512 -28.2194,-83.68512"
       style="fill:none;stroke:#000000;stroke-width:1px;stroke-linecap:butt;stroke-linejoin:miter;stroke-opacity:1;marker-mid:none;marker-end:url(#Arrow1Mend)" />
    <path
       style="fill:none;stroke:#000000;stroke-width:1px;stroke-linecap:butt;stroke-linejoin:miter;stroke-opacity:1;marker-mid:none;marker-end:url(#Arrow1Mend)"
       d="m 441.9343,200.54954 c -0.48654,-69.57542 -28.2194,-83.68512 -28.2194,-83.68512"
       id="path10718"
       inkscape:connector-curvature="0" />
    <path
       style="fill:none;stroke:#000000;stroke-width:0.91271179999999996px;stroke-linecap:butt;stroke-linejoin:miter;stroke-opacity:1;marker-end:url(#Arrow1Mend)"
       d="m 191.6973,217.57849 c 55.06493,0 55.509,0 55.509,0"
       id="path10722"
       inkscape:connector-curvature="0" />
    <path
       inkscape:connector-curvature="0"
       id="path11468"
       d="m 281.22091,217.57849 c 55.06493,0 55.509,0 55.509,0"
       style="fill:none;stroke:#000000;stroke-width:0.9127118px;stroke-linecap:butt;stroke-linejoin:miter;stroke-opacity:1;marker-end:url(#Arrow1Mend)" />
    <path
       style="fill:none;stroke:#000000;stroke-width:0.9127118px;stroke-linecap:butt;stroke-linejoin:miter;stroke-opacity:1;marker-end:url(#Arrow1Mend)"
       d="m 369.2849,217.57849 c 55.06493,0 55.509,0 55.509,0"
       id="path11470"
       inkscape:connector-curvature="0" />
    <path
       sodipodi:type="arc"
       style="fill:none;stroke:#000000;stroke-width:1;stroke-miterlimit:4;stroke-opacity:1;stroke-dasharray:none;marker-end:url(#Arrow1Mend)"
       id="path11566"
       sodipodi:cx="262.24579"
       sodipodi:cy="311.48096"
       sodipodi:rx="17.028948"
       sodipodi:ry="17.028948"
       d="M 279.27474,311.48096 A 17.028948,17.028948 0 1 1 261.3954,294.47326"
       sodipodi:start="0"
       sodipodi:end="4.6624306"
       sodipodi:open="true"
       transform="translate(73.467746,-70.548498)" />
    <path
       transform="matrix(-1,0,0,1,456.37579,-71.996377)"
       sodipodi:open="true"
       sodipodi:end="4.6624306"
       sodipodi:start="0"
       d="M 279.27474,311.48096 A 17.028948,17.028948 0 1 1 261.3954,294.47326"
       sodipodi:ry="17.028948"
       sodipodi:rx="17.028948"
       sodipodi:cy="311.48096"
       sodipodi:cx="262.24579"
       id="path11568"
       style="fill:none;stroke:#000000;stroke-width:1;stroke-miterlimit:4;stroke-opacity:1;stroke-dasharray:none;marker-start:url(#Arrow1Mstart)"
       sodipodi:type="arc" />
    <path
       style="fill:none;stroke:#000000;stroke-width:1px;stroke-linecap:butt;stroke-linejoin:miter;stroke-opacity:1"
       d="m 458.32196,285.20774 c 0,0 -4.86541,47.19451 -50.6003,47.19451 -46.65219,0 -51.57338,-47.68105 -51.57338,-47.68105"
       id="path12340"
       inkscape:connector-curvature="0"
       sodipodi:nodetypes="csc" />
  </g>
</svg>
